<svg width="86" height="15" viewBox="0 0 86 15" fill="none" xmlns="http://www.w3.org/2000/svg">
<path fill-rule="evenodd" clip-rule="evenodd" d="M8.22335 0.176397C7.72747 -0.0587983 7.15219 -0.058799 6.65631 0.176395C6.31302 0.339213 6.06951 0.647412 5.85373 0.995746C5.63679 1.34597 5.39877 1.82202 5.10237 2.41485L5.10236 2.41487L5.09076 2.43808L4.85186 2.91588C4.64861 3.32238 4.58951 3.42891 4.5153 3.50658C4.43876 3.58668 4.34699 3.65069 4.24536 3.69481C4.14682 3.73759 4.02643 3.75622 3.57473 3.80642L3.35787 3.83051L3.33184 3.83341H3.33184C2.61977 3.91252 2.05094 3.97572 1.62029 4.06331C1.19557 4.1497 0.799742 4.27759 0.522665 4.56029C0.126232 4.96475 -0.0604009 5.53011 0.0173119 6.0911C0.0716268 6.48319 0.313515 6.82163 0.603331 7.14391C0.89719 7.47065 1.31659 7.86015 1.84161 8.34767L1.86079 8.36549L2.08975 8.57806C2.48744 8.94735 2.58941 9.05181 2.64654 9.16305C2.70552 9.27794 2.73694 9.40494 2.7383 9.53407C2.73961 9.65894 2.69726 9.80143 2.51513 10.3205L2.50652 10.3451L2.50651 10.3451C2.23773 11.1111 2.02488 11.7178 1.90403 12.1897C1.78663 12.6482 1.72085 13.0984 1.8739 13.4882C2.08927 14.0368 2.55587 14.448 3.12721 14.5926C3.53207 14.6951 3.96656 14.5757 4.40268 14.4037C4.85039 14.2271 5.41731 13.9436 6.13211 13.5862L6.15551 13.5745L6.7113 13.2966C7.08604 13.1092 7.18837 13.0631 7.28657 13.0447C7.38784 13.0257 7.49183 13.0257 7.59309 13.0447C7.69129 13.0631 7.79362 13.1092 8.16836 13.2966L8.72415 13.5745L8.74762 13.5862C9.46239 13.9436 10.0293 14.2271 10.477 14.4037C10.9131 14.5757 11.3476 14.6951 11.7524 14.5926C12.3238 14.448 12.7904 14.0368 13.0058 13.4882C13.1588 13.0984 13.093 12.6482 12.9756 12.1897C12.8548 11.7178 12.6419 11.1111 12.3731 10.3451V10.345L12.3645 10.3205C12.1824 9.80143 12.1401 9.65894 12.1413 9.53407C12.1427 9.40494 12.1741 9.27794 12.2332 9.16305C12.2903 9.05181 12.3922 8.94735 12.7899 8.57806L13.0189 8.36549L13.0381 8.3476C13.5631 7.86009 13.9825 7.47065 14.2763 7.14391C14.5662 6.82163 14.808 6.48319 14.8624 6.0911C14.9401 5.53011 14.7535 4.96475 14.357 4.56029C14.0799 4.27759 13.6841 4.1497 13.2594 4.06331C12.8287 3.97572 12.2599 3.91252 11.5478 3.83341L11.5218 3.83051L11.305 3.80642C10.8532 3.75622 10.7328 3.73759 10.6343 3.69481C10.5327 3.65069 10.4409 3.58668 10.3644 3.50658C10.2902 3.42891 10.2311 3.32238 10.0278 2.91587L9.78892 2.43809L9.77728 2.41486C9.48087 1.82202 9.2429 1.34597 9.02595 0.995746C8.81019 0.647412 8.5667 0.339219 8.22335 0.176397Z" fill="#FFC250"/>
<path fill-rule="evenodd" clip-rule="evenodd" d="M25.864 0.176397C25.3681 -0.0587983 24.7928 -0.058799 24.2969 0.176395C23.9536 0.339213 23.7101 0.647412 23.4944 0.995746C23.2774 1.34597 23.0394 1.82202 22.743 2.41485L22.743 2.41487L22.7314 2.43808L22.4925 2.91588C22.2892 3.32238 22.2301 3.42891 22.1559 3.50658C22.0794 3.58668 21.9876 3.65069 21.886 3.69481C21.7874 3.73759 21.6671 3.75622 21.2154 3.80642L20.9985 3.83051L20.9725 3.83341H20.9725C20.2604 3.91252 19.6916 3.97572 19.2609 4.06331C18.8362 4.1497 18.4404 4.27759 18.1633 4.56029C17.7669 4.96475 17.5802 5.53011 17.6579 6.0911C17.7123 6.48319 17.9541 6.82163 18.244 7.14391C18.5378 7.47065 18.9572 7.86015 19.4822 8.34767L19.5014 8.36549L19.7304 8.57806C20.1281 8.94735 20.23 9.05181 20.2872 9.16305C20.3461 9.27794 20.3776 9.40494 20.3789 9.53407C20.3802 9.65894 20.3379 9.80143 20.1558 10.3205L20.1471 10.3451L20.1471 10.3451C19.8784 11.1111 19.6655 11.7178 19.5447 12.1897C19.4273 12.6482 19.3615 13.0984 19.5145 13.4882C19.7299 14.0368 20.1965 14.448 20.7678 14.5926C21.1727 14.6951 21.6072 14.5757 22.0433 14.4037C22.491 14.2271 23.0579 13.9436 23.7727 13.5862L23.7961 13.5745L24.3519 13.2966C24.7267 13.1092 24.829 13.0631 24.9272 13.0447C25.0285 13.0257 25.1325 13.0257 25.2337 13.0447C25.3319 13.0631 25.4342 13.1092 25.809 13.2966L26.3648 13.5745L26.3882 13.5862C27.103 13.9436 27.6699 14.2271 28.1176 14.4037C28.5537 14.5757 28.9882 14.6951 29.3931 14.5926C29.9644 14.448 30.431 14.0368 30.6464 13.4882C30.7995 13.0984 30.7336 12.6482 30.6163 12.1897C30.4954 11.7178 30.2826 11.1111 30.0137 10.3451V10.345L30.0052 10.3205C29.823 9.80143 29.7807 9.65894 29.782 9.53407C29.7834 9.40494 29.8147 9.27794 29.8738 9.16305C29.9309 9.05181 30.0328 8.94735 30.4306 8.57806L30.6595 8.36549L30.6787 8.3476C31.2037 7.86009 31.6231 7.47065 31.9169 7.14391C32.2068 6.82163 32.4487 6.48319 32.503 6.0911C32.5807 5.53011 32.3941 4.96475 31.9976 4.56029C31.7205 4.27759 31.3247 4.1497 30.9 4.06331C30.4693 3.97572 29.9005 3.91252 29.1885 3.83341L29.1624 3.83051L28.9456 3.80642C28.4938 3.75622 28.3734 3.73759 28.275 3.69481C28.1733 3.65069 28.0815 3.58668 28.005 3.50658C27.9308 3.42891 27.8717 3.32238 27.6684 2.91587L27.4295 2.43809L27.4179 2.41486C27.1215 1.82202 26.8835 1.34597 26.6666 0.995746C26.4508 0.647412 26.2073 0.339219 25.864 0.176397Z" fill="#FFC250"/>
<path fill-rule="evenodd" clip-rule="evenodd" d="M43.5046 0.176397C43.0087 -0.0587983 42.4334 -0.058799 41.9376 0.176395C41.5943 0.339213 41.3508 0.647412 41.135 0.995746C40.918 1.34597 40.68 1.82202 40.3836 2.41485L40.3836 2.41487L40.372 2.43808L40.1331 2.91588C39.9299 3.32238 39.8708 3.42891 39.7966 3.50658C39.72 3.58668 39.6282 3.65069 39.5266 3.69481C39.4281 3.73759 39.3077 3.75622 38.856 3.80642L38.6391 3.83051L38.6131 3.83341H38.6131C37.901 3.91252 37.3322 3.97572 36.9015 4.06331C36.4768 4.1497 36.081 4.27759 35.8039 4.56029C35.4075 4.96475 35.2208 5.53011 35.2986 6.0911C35.3529 6.48319 35.5948 6.82163 35.8846 7.14391C36.1784 7.47065 36.5978 7.86015 37.1229 8.34767L37.142 8.36549L37.371 8.57806C37.7687 8.94735 37.8707 9.05181 37.9278 9.16305C37.9868 9.27794 38.0182 9.40494 38.0195 9.53407C38.0209 9.65894 37.9785 9.80143 37.7964 10.3205L37.7878 10.3451L37.7878 10.3451C37.519 11.1111 37.3061 11.7178 37.1853 12.1897C37.0679 12.6482 37.0021 13.0984 37.1551 13.4882C37.3705 14.0368 37.8371 14.448 38.4085 14.5926C38.8133 14.6951 39.2478 14.5757 39.6839 14.4037C40.1316 14.2271 40.6986 13.9436 41.4134 13.5862L41.4368 13.5745L41.9925 13.2966C42.3673 13.1092 42.4696 13.0631 42.5678 13.0447C42.6691 13.0257 42.7731 13.0257 42.8743 13.0447C42.9725 13.0631 43.0749 13.1092 43.4496 13.2966L44.0054 13.5745L44.0289 13.5862C44.7436 13.9436 45.3105 14.2271 45.7582 14.4037C46.1943 14.5757 46.6288 14.6951 47.0337 14.5926C47.605 14.448 48.0717 14.0368 48.287 13.4882C48.4401 13.0984 48.3743 12.6482 48.2569 12.1897C48.136 11.7178 47.9232 11.1111 47.6544 10.3451V10.345L47.6458 10.3205C47.4637 9.80143 47.4213 9.65894 47.4226 9.53407C47.424 9.40494 47.4554 9.27794 47.5144 9.16305C47.5715 9.05181 47.6734 8.94735 48.0712 8.57806L48.3001 8.36549L48.3193 8.3476C48.8443 7.86009 49.2638 7.47065 49.5576 7.14391C49.8474 6.82163 50.0893 6.48319 50.1436 6.0911C50.2213 5.53011 50.0347 4.96475 49.6382 4.56029C49.3612 4.27759 48.9653 4.1497 48.5406 4.06331C48.11 3.97572 47.5411 3.91252 46.8291 3.83341L46.803 3.83051L46.5862 3.80642C46.1345 3.75622 46.0141 3.73759 45.9156 3.69481C45.8139 3.65069 45.7222 3.58668 45.6456 3.50658C45.5714 3.42891 45.5123 3.32238 45.3091 2.91587L45.0702 2.43809L45.0585 2.41486C44.7621 1.82202 44.5242 1.34597 44.3072 0.995746C44.0914 0.647412 43.848 0.339219 43.5046 0.176397Z" fill="#FFC250"/>
<path fill-rule="evenodd" clip-rule="evenodd" d="M61.1452 0.176397C60.6493 -0.0587983 60.0741 -0.058799 59.5782 0.176395C59.2349 0.339213 58.9914 0.647412 58.7756 0.995746C58.5587 1.34597 58.3206 1.82202 58.0242 2.41485L58.0242 2.41487L58.0126 2.43808L57.7737 2.91588C57.5705 3.32238 57.5114 3.42891 57.4372 3.50658C57.3606 3.58668 57.2689 3.65069 57.1672 3.69481C57.0687 3.73759 56.9483 3.75622 56.4966 3.80642L56.2797 3.83051L56.2537 3.83341H56.2537C55.5416 3.91252 54.9728 3.97572 54.5422 4.06331C54.1174 4.1497 53.7216 4.27759 53.4445 4.56029C53.0481 4.96475 52.8615 5.53011 52.9392 6.0911C52.9935 6.48319 53.2354 6.82163 53.5252 7.14391C53.8191 7.47065 54.2385 7.86015 54.7635 8.34767L54.7827 8.36549L55.0116 8.57806C55.4093 8.94735 55.5113 9.05181 55.5684 9.16305C55.6274 9.27794 55.6588 9.40494 55.6602 9.53407C55.6615 9.65894 55.6191 9.80143 55.437 10.3205L55.4284 10.3451L55.4284 10.3451C55.1596 11.1111 54.9468 11.7178 54.8259 12.1897C54.7085 12.6482 54.6427 13.0984 54.7958 13.4882C55.0111 14.0368 55.4777 14.448 56.0491 14.5926C56.4539 14.6951 56.8884 14.5757 57.3246 14.4037C57.7723 14.2271 58.3392 13.9436 59.054 13.5862L59.0774 13.5745L59.6332 13.2966C60.0079 13.1092 60.1102 13.0631 60.2084 13.0447C60.3097 13.0257 60.4137 13.0257 60.515 13.0447C60.6132 13.0631 60.7155 13.1092 61.0902 13.2966L61.646 13.5745L61.6695 13.5862C62.3843 13.9436 62.9512 14.2271 63.3988 14.4037C63.8349 14.5757 64.2695 14.6951 64.6743 14.5926C65.2457 14.448 65.7123 14.0368 65.9276 13.4882C66.0807 13.0984 66.0149 12.6482 65.8975 12.1897C65.7766 11.7178 65.5638 11.1111 65.295 10.3451V10.345L65.2864 10.3205C65.1043 9.80143 65.0619 9.65894 65.0632 9.53407C65.0646 9.40494 65.096 9.27794 65.155 9.16305C65.2121 9.05181 65.3141 8.94735 65.7118 8.57806L65.9407 8.36549L65.96 8.3476C66.485 7.86009 66.9044 7.47065 67.1982 7.14391C67.488 6.82163 67.7299 6.48319 67.7842 6.0911C67.862 5.53011 67.6753 4.96475 67.2789 4.56029C67.0018 4.27759 66.606 4.1497 66.1812 4.06331C65.7506 3.97572 65.1818 3.91252 64.4697 3.83341L64.4437 3.83051L64.2268 3.80642C63.7751 3.75622 63.6547 3.73759 63.5562 3.69481C63.4546 3.65069 63.3628 3.58668 63.2863 3.50658C63.2121 3.42891 63.153 3.32238 62.9497 2.91587L62.7108 2.43809L62.6992 2.41486C62.4027 1.82202 62.1648 1.34597 61.9478 0.995746C61.7321 0.647412 61.4886 0.339219 61.1452 0.176397Z" fill="#FFC250"/>
<path fill-rule="evenodd" clip-rule="evenodd" d="M78.778 0.176397C78.2822 -0.0587983 77.7069 -0.058799 77.211 0.176395C76.8677 0.339213 76.6242 0.647412 76.4084 0.995746C76.1915 1.34597 75.9535 1.82202 75.6571 2.41485L75.6571 2.41487L75.6454 2.43808L75.4066 2.91588C75.2033 3.32238 75.1442 3.42891 75.07 3.50658C74.9934 3.58668 74.9017 3.65069 74.8 3.69481C74.7015 3.73759 74.5811 3.75622 74.1294 3.80642L73.9126 3.83051L73.8865 3.83341H73.8865C73.1745 3.91252 72.6056 3.97572 72.175 4.06331C71.7503 4.1497 71.3544 4.27759 71.0774 4.56029C70.6809 4.96475 70.4943 5.53011 70.572 6.0911C70.6263 6.48319 70.8682 6.82163 71.158 7.14391C71.4519 7.47065 71.8713 7.86015 72.3963 8.34767L72.4155 8.36549L72.6444 8.57806C73.0421 8.94735 73.1441 9.05181 73.2012 9.16305C73.2602 9.27794 73.2916 9.40494 73.293 9.53407C73.2943 9.65894 73.2519 9.80143 73.0698 10.3205L73.0612 10.3451L73.0612 10.3451C72.7924 11.1111 72.5796 11.7178 72.4587 12.1897C72.3413 12.6482 72.2755 13.0984 72.4286 13.4882C72.644 14.0368 73.1106 14.448 73.6819 14.5926C74.0868 14.6951 74.5213 14.5757 74.9574 14.4037C75.4051 14.2271 75.972 13.9436 76.6868 13.5862L76.7102 13.5745L77.266 13.2966C77.6407 13.1092 77.7431 13.0631 77.8413 13.0447C77.9425 13.0257 78.0465 13.0257 78.1478 13.0447C78.246 13.0631 78.3483 13.1092 78.723 13.2966L79.2788 13.5745L79.3023 13.5862C80.0171 13.9436 80.584 14.2271 81.0316 14.4037C81.4678 14.5757 81.9023 14.6951 82.3071 14.5926C82.8785 14.448 83.3451 14.0368 83.5605 13.4882C83.7135 13.0984 83.6477 12.6482 83.5303 12.1897C83.4095 11.7178 83.1966 11.1111 82.9278 10.3451V10.345L82.9192 10.3205C82.7371 9.80143 82.6948 9.65894 82.696 9.53407C82.6974 9.40494 82.7288 9.27794 82.7878 9.16305C82.845 9.05181 82.9469 8.94735 83.3446 8.57806L83.5736 8.36549L83.5928 8.3476C84.1178 7.86009 84.5372 7.47065 84.831 7.14391C85.1208 6.82163 85.3627 6.48319 85.4171 6.0911C85.4948 5.53011 85.3081 4.96475 84.9117 4.56029C84.6346 4.27759 84.2388 4.1497 83.814 4.06331C83.3834 3.97572 82.8146 3.91252 82.1025 3.83341L82.0765 3.83051L81.8596 3.80642C81.4079 3.75622 81.2875 3.73759 81.189 3.69481C81.0874 3.65069 80.9956 3.58668 80.9191 3.50658C80.8449 3.42891 80.7858 3.32238 80.5825 2.91587L80.3436 2.43809L80.332 2.41486C80.0356 1.82202 79.7976 1.34597 79.5806 0.995746C79.3649 0.647412 79.1214 0.339219 78.778 0.176397Z" fill="#FFC250"/>
</svg>
